<?xml version="1.0" encoding="UTF-8" standalone="no"?>
<svg id="svg215099" xmlns:rdf="http://www.w3.org/1999/02/22-rdf-syntax-ns#" xmlns="http://www.w3.org/2000/svg" height="225.78mm" width="225.78mm" version="1.1" xmlns:cc="http://creativecommons.org/ns#" xmlns:dc="http://purl.org/dc/elements/1.1/" viewBox="0 0 799.99998 799.99997">
<g id="layer1" transform="translate(-553.99 707.34)">
<g id="g4339">
<path id="path4172" fill="#a00" d="m1143.4-707.34c-83.778 0-155.56 46.889-189.42 114.22-33.866-67.333-105.64-114.22-189.51-114.22-116.22 0-210.49 89.6-210.49 200 0 200 419.96 600 419.96 600s380.04-400 380.04-600c0-110.4-94.266-200-210.58-200z"/>
<path id="path4185" d="m1056.3-689.27c-44.797 19.603-81.055 53.84-102.34 96.154-21.279-42.307-57.528-76.538-102.34-96.143l102.34 381.92 102.34-381.93zm-102.34 381.93 377.98-101.28c13.882-35.932 22.022-69.468 22.022-98.721 0-54.439-22.932-103.81-60.115-139.88l-339.88 339.88zl194.78 194.78c29.302-37.77 59.077-78.299 86.539-119.4l-281.32-75.379zl-79.967 298.44c57.673 61.309 99.922 101.56 99.922 101.56s27.354-28.826 67.229-74.629l-87.184-325.37zl-270.9 72.588c27.83 37.861 57.876 75.282 87.758 110.55l183.17-183.14zl-339.89-339.89c-37.176 36.075-60.109 85.449-60.109 139.89 0 29.443 9.108 63.223 24.631 99.42l375.37 100.58z" fill="#800000"/>
<path id="path4190" d="m815.83-598.94c-42.945 0-81.769 16.789-109.62 43.82l247.78 247.78-74.602-278.41c-19.323-8.455-40.828-13.186-63.553-13.186zm138.15 291.6 247.78-247.78c-27.864-27.034-66.708-43.824-109.69-43.824-22.694 0-44.175 4.7276-63.484 13.178l-74.604 278.42zl205.08 54.951c29.229-43.744 54.844-88.347 70.467-128.78l-275.55 73.832zl63.557 237.2c22.337-25.658 50.027-58.586 78.436-95.203l-141.91-142zl-133.51 133.51c26.322 31.071 52.407 59.801 75.215 84.047l58.295-217.56zl-273.64-73.322c17.014 39.674 44.618 83.331 76.156 126.24l197.49-52.916z" fill="#f00"/>
<path id="path4195" d="m1028.6-585.76c-32.656 14.291-59.088 39.243-74.604 70.09-15.512-30.841-41.938-55.79-74.602-70.082l74.602 278.41 74.604-278.42zm-74.604 278.42 275.55-73.832c10.12-26.195 16.053-50.644 16.053-71.969 0-39.686-16.718-75.676-43.824-101.97l-247.78 247.78zl141.99 141.99c21.362-27.534 43.068-57.079 63.088-87.041l-205.08-54.951zl-58.295 217.56c42.031 44.68 72.842 74.043 72.842 74.043s19.941-21.014 49.01-54.404l-63.557-237.2zl-197.49 52.916c20.288 27.601 42.193 54.88 63.977 80.594l133.5-133.51zl-247.78-247.78c-27.101 26.299-43.82 62.291-43.82 101.98 0 21.464 6.6408 46.091 17.957 72.479l273.64 73.322z" fill="#d40000"/>
<path id="path4200" d="m863.34-498.66c-28.176 0-53.649 11.014-71.926 28.75l162.57 162.57-48.945-182.67c-12.678-5.5476-26.787-8.6504-41.697-8.6504zm90.643 191.32 162.57-162.57c-18.282-17.737-43.768-28.752-71.967-28.752-14.89 0-28.984 3.1003-41.652 8.6445l-48.947 182.67zl134.55 36.053c19.178-28.702 35.967-57.959 46.217-84.49l-180.77 48.438zl41.699 155.62c14.654-16.833 32.822-38.443 51.459-62.465l-93.158-93.158zl-87.586 87.586c17.265 20.38 34.379 39.249 49.34 55.152l38.246-142.74zl-179.52-48.102c11.163 26.031 29.252 54.668 49.945 82.82l129.57-34.719z" fill="#a00"/>
<path id="path4205" d="m1002.9-490.01c-21.425 9.3763-38.768 25.748-48.947 45.986-10.177-20.234-27.515-36.603-48.945-45.98l48.945 182.67 48.947-182.67zm-48.947 182.67 180.77-48.438c6.6393-17.185 10.549-33.232 10.549-47.223 0-26.038-10.968-49.652-28.752-66.906l-162.57 162.57zl93.158 93.158c14.017-18.067 28.258-37.445 41.394-57.105l-134.55-36.053zl-38.246 142.74c27.576 29.314 47.791 48.58 47.791 48.58s13.082-13.787 32.154-35.695l-41.65-155.62zl-129.57 34.719c13.315 18.115 27.688 35.992 41.984 52.867l87.586-87.586zl-162.57-162.57c-17.781 17.255-28.75 40.869-28.75 66.908 0 14.082 4.3788 30.246 11.803 47.559l179.52 48.102z" fill="#800000"/>
<path id="path4144" d="m910.63-398.85c-13.477 0-25.657 5.2728-34.398 13.756l77.752 77.752-23.41-87.369c-6.064-2.6535-12.812-4.1387-19.943-4.1387zm43.354 91.508 77.75-77.75c-8.7441-8.4836-20.928-13.758-34.416-13.758-7.1225 0-13.864 1.4843-19.924 4.1367l-23.41 87.371zl64.354 17.244c9.1727-13.728 17.207-27.722 22.109-40.412l-86.463 23.168zl19.941 74.424c7.0198-8.0613 15.674-18.342 24.615-29.867l-44.557-44.557zl-41.893 41.893c8.2581 9.7477 16.444 18.772 23.6 26.379l18.293-68.271zl-85.861-23.006c5.339 12.45 13.999 26.145 23.896 39.609l61.965-16.604z" fill-rule="evenodd" fill="#f00"/>
<path id="path4220" d="m977.4-394.71c-10.247 4.4848-18.542 12.315-23.41 21.994-4.8676-9.678-13.16-17.507-23.41-21.992l23.41 87.369 23.41-87.371zm-23.41 87.371 86.463-23.168c3.1754-8.2195 5.0449-15.894 5.0449-22.586 0-12.454-5.2516-23.743-13.758-31.996l-77.75 77.75zl44.557 44.557c6.7045-8.6417 13.513-17.909 19.797-27.312l-64.354-17.244zl-18.293 68.271c13.19 14.021 22.857 23.236 22.857 23.236s6.2901-6.649 15.377-17.084l-19.941-74.424zl-61.965 16.604c6.3686 8.6644 13.234 17.217 20.072 25.289l41.893-41.893zl-77.752-77.752c-8.5043 8.2528-13.754 19.544-13.754 31.998 0 6.7355 2.0934 14.467 5.6445 22.748l85.861 23.006z" fill="#d40000"/>
</g>
</g>
</svg>
